<svg xmlns="http://www.w3.org/2000/svg" enable-background="new 0 0 140 140" viewBox="0 0 140 140"><path fill="#db3146" d="M53.4355736 49.6508522c3.4488945 5.5200195 8.266655 12.3644753 14.5600014 19.235569-3.2977905 3.2177734-6.8444519 6.4355469-10.5422592 9.5111237-.5688477.4799805-1.1377487.9511185-1.7155495 1.4132996-10.2044258-13.3333359-17.5377617-29.3421745-8.9866524-42.4444427l.0177917.044487.3021927.5600052L53.4355736 49.6508522zM100.7511139 91.7930527l-11.1377487 4.471138-.2133789 9.7155457-.0533371 2.3555756c0 0-12.1333008-5.8755951-19.1821823-12.5777969.5422134-.5066757 1.0755234-1.0221939 1.6177292-1.5466614 3.6444778-3.573349 7.3955688-7.5289154 10.8888931-11.733345C86.5466843 85.2864304 96.6622467 89.4375305 100.7511139 91.7930527z"/><path d="M57.4533157 78.3975449c-.5688477.4799805-1.1377487.9511185-1.7155495 1.4132996-10.2044258-13.3333359-17.5377617-29.3421745-8.9866524-42.4444427l.0177917.044487.3021927.5600052C40.5644264 50.6908913 47.7288666 65.757515 57.4533157 78.3975449zM89.3999863 105.9797363l-.0533371 2.3555756c0 0-12.1333008-5.8755951-19.1821823-12.5777969.5422134-.5066757 1.0755234-1.0221939 1.6177292-1.5466614C77.3111191 99.4553223 85.9333496 104.1753235 89.3999863 105.9797363z" opacity=".1"/><path fill="#ee4659" d="M50.653347,109.9975281l-0.2489128-12.0622253l-11.1555481-4.4799805
			c20.1688919-11.573349,40.1066666-32.204483,47.3333359-43.8044701l0.0711288-0.1155586l6.5511017-12.0710754l0.0444336-0.0978165
			C111.5066452,65.3841934,50.653347,109.9975281,50.653347,109.9975281z"/><path d="M50.653347,109.9975281l-0.071125-3.3155899c9.6711159-7.4755325,53.840004-43.4755325,42.2489166-68.5333099
			l0.3733139-0.6844101l0.0444336-0.0978165C111.5066452,65.3841934,50.653347,109.9975281,50.653347,109.9975281z" opacity=".1"/><path fill="#db3146" d="M93.2488861,37.3664017L86.582222,49.6508522c0,0-16.1955338-15.1999779-33.1466484,0l-6.6666679-12.2399635
			l-0.0177917-0.044487C46.7511139,37.3664017,68.8844681,20.797554,93.2488861,37.3664017z"/><path d="M93.2488861,37.3664017L86.582222,49.6508522c0,0-16.1955338-15.1999779-33.1466484,0l-6.6666679-12.2399635
			l-0.0177917-0.044487C46.7511139,37.3664017,68.8844681,20.797554,93.2488861,37.3664017z" opacity=".1"/></svg>