<svg xmlns="http://www.w3.org/2000/svg" enable-background="new 0 0 512 512" viewBox="0 0 512 512"><circle cx="58.5" cy="453.5" r="30" fill="#70f2a4"/><path fill="#70f2a4" d="M458.5,28.5c11.05,0,20,8.95,20,20s-8.95,20-20,20s-20-8.95-20-20S447.45,28.5,458.5,28.5z"/><path fill="#e80054" d="M167.52 134.23c-10.64 8.13-20.16 17.65-28.29 28.29l-29.22-29.23-1.77 1.77c-3.42 3.42-7.89 5.12-12.37 5.12s-8.96-1.7-12.38-5.12c-6.83-6.83-6.83-17.91 0-24.75l31.82-31.82c3.42-3.41 7.9-5.12 12.38-5.12s8.95 1.71 12.37 5.12c6.83 6.84 6.83 17.92 0 24.75l-1.77 1.77L167.52 134.23zM68.5 233.5h41.33c-.88 6.54-1.33 13.22-1.33 20 0 6.78.45 13.46 1.33 20H68.5v2.5c0 4.84-1.96 9.21-5.12 12.38-3.17 3.16-7.54 5.12-12.38 5.12-9.67 0-17.5-7.83-17.5-17.5v-45c0-4.84 1.96-9.21 5.12-12.38 3.17-3.16 7.54-5.12 12.38-5.12 9.67 0 17.5 7.83 17.5 17.5V233.5zM293.38 33.62c3.16 3.17 5.12 7.54 5.12 12.38 0 9.67-7.83 17.5-17.5 17.5h-2.5v41.33c-6.54-.88-13.221-1.33-20-1.33-6.78 0-13.46.45-20 1.33V63.5H236c-4.84 0-9.21-1.96-12.38-5.12-3.16-3.17-5.12-7.54-5.12-12.38 0-9.67 7.83-17.5 17.5-17.5h45C285.84 28.5 290.21 30.46 293.38 33.62zM433.51 110.31c3.41 3.42 5.12 7.9 5.12 12.38s-1.71 8.95-5.12 12.37c-6.84 6.83-17.92 6.83-24.75 0l-1.77-1.77-29.221 29.23c-8.129-10.64-17.649-20.16-28.289-28.29l29.229-29.22-1.771-1.77c-3.42-3.42-5.119-7.89-5.119-12.37s1.699-8.96 5.119-12.38c6.83-6.83 17.92-6.83 24.75 0L433.51 110.31zM483.5 231v45c0 4.84-1.96 9.21-5.12 12.38-3.17 3.16-7.54 5.12-12.38 5.12-9.67 0-17.5-7.83-17.5-17.5v-2.5h-41.33c.88-6.54 1.33-13.22 1.33-20 0-6.78-.45-13.46-1.33-20h41.33V231c0-4.84 1.96-9.21 5.12-12.38 3.17-3.16 7.54-5.12 12.38-5.12C475.67 213.5 483.5 221.33 483.5 231zM377.77 344.48l29.221 29.229 1.77-1.77c3.42-3.421 7.891-5.12 12.37-5.12s8.96 1.699 12.38 5.12c6.83 6.829 6.83 17.92 0 24.75l-31.82 31.819c-3.41 3.41-7.89 5.12-12.369 5.12-4.48 0-8.961-1.71-12.381-5.12-6.83-6.84-6.83-17.92 0-24.75l1.771-1.77L349.48 372.77C360.12 364.64 369.641 355.12 377.77 344.48zM293.38 448.62c3.16 3.17 5.12 7.54 5.12 12.38 0 9.67-7.83 17.5-17.5 17.5h-45c-4.84 0-9.21-1.96-12.38-5.12-3.16-3.17-5.12-7.54-5.12-12.38 0-9.67 7.83-17.5 17.5-17.5h2.5v-41.33c6.54.88 13.22 1.33 20 1.33 6.779 0 13.46-.45 20-1.33v41.33h2.5C285.84 443.5 290.21 445.46 293.38 448.62zM139.23 344.48c8.13 10.64 17.65 20.159 28.29 28.289l-29.23 29.221 1.77 1.77c3.42 3.42 5.12 7.891 5.12 12.37 0 4.48-1.7 8.96-5.12 12.38-6.83 6.83-17.91 6.83-24.75 0L83.49 396.69c-3.41-3.41-5.12-7.891-5.12-12.37 0-4.48 1.71-8.96 5.12-12.38 6.84-6.83 17.92-6.83 24.75 0l1.77 1.77L139.23 344.48z"/><circle cx="471" cy="166" r="7.5" fill="#1e9ef4"/><circle cx="461" cy="436" r="7.5" fill="#1e9ef4"/><circle cx="351" cy="456" r="7.5" fill="#1e9ef4"/><circle cx="181" cy="446" r="7.5" fill="#1e9ef4"/><path fill="#e80054" d="M168.5,303.5c5.52,0,10,4.48,10,10s-4.48,10-10,10s-10-4.48-10-10S162.98,303.5,168.5,303.5z"/><circle cx="161" cy="41" r="7.5" fill="#1e9ef4"/><circle cx="81" cy="331" r="7.5" fill="#e80054"/><circle cx="56" cy="171" r="7.5" fill="#1e9ef4"/><path fill="#ff4155" d="M258.5,99.5c85.065,0,154,68.965,154,154c0,85.589-69.482,154-154,154
				c-84.897,0-154-68.793-154-154C104.5,168.435,173.465,99.5,258.5,99.5z"/><path fill="#ffdd40" d="M340.633 217.567c8.501 0 15.4 6.899 15.4 15.4s-6.899 15.4-15.4 15.4c-8.5 0-15.399-6.899-15.399-15.4S332.133 217.567 340.633 217.567zM304.7 330.5c8.501 0 15.399 6.898 15.399 15.4 0 8.501-6.898 15.399-15.399 15.399s-15.4-6.898-15.4-15.399C289.3 337.398 296.199 330.5 304.7 330.5zM202.033 243.233c14.179 0 25.667 11.489 25.667 25.667s-11.488 25.666-25.667 25.666c-14.178 0-25.667-11.488-25.667-25.666S187.855 243.233 202.033 243.233z"/><path fill="#e80054" d="M273.9 227.833c8.5 0 15.399 6.899 15.399 15.4 0 8.501-6.899 15.4-15.399 15.4-8.501 0-15.4-6.899-15.4-15.4C258.5 234.733 265.399 227.833 273.9 227.833zM197.078 202.313c-4.659 0-8.936-2.136-11.735-5.861l-3.813-5.087c-1.327-1.774-3.177-1.813-3.914-1.747-.736.065-2.555.433-3.547 2.414-1.27 2.535-4.353 3.561-6.889 2.292-2.535-1.269-3.561-4.353-2.292-6.888 2.293-4.581 6.71-7.587 11.813-8.043 5.099-.455 9.977 1.719 13.045 5.817l3.808 5.08c.838 1.115 2.124 1.757 3.524 1.757.001 0 .002 0 .003 0 1.396-.001 2.677-.641 3.514-1.757l3.823-5.087c3.063-4.092 7.941-6.27 13.041-5.81 5.103.456 9.519 3.463 11.813 8.043.763 1.534 2.237 2.442 3.952 2.442.814 0 2.35-.229 3.5-1.763l2.193-2.915c3.061-4.088 7.937-6.261 13.038-5.807 5.103.457 9.52 3.463 11.813 8.043.766 1.53 2.242 2.442 3.951 2.442.818 0 2.361-.229 3.51-1.763l2.193-2.915c3.062-4.088 7.941-6.255 13.033-5.807 5.1.456 9.515 3.463 11.809 8.043.765 1.53 2.246 2.442 3.962 2.442.813 0 2.351-.229 3.499-1.763 1.699-2.269 4.917-2.731 7.186-1.031 2.27 1.7 2.731 4.917 1.031 7.186-2.797 3.734-7.066 5.875-11.716 5.875-5.604 0-10.64-3.109-13.144-8.114-.991-1.979-2.807-2.347-3.541-2.412-.74-.066-2.582-.027-3.908 1.745l-2.193 2.916c-2.791 3.724-7.064 5.865-11.721 5.865-5.598 0-10.63-3.109-13.133-8.115-.99-1.979-2.81-2.346-3.546-2.411-.733-.062-2.585-.027-3.913 1.745l-2.194 2.916c-2.79 3.724-7.06 5.865-11.709 5.865-5.612 0-10.647-3.113-13.138-8.125-.986-1.968-2.805-2.335-3.541-2.401-.731-.062-2.586-.027-3.913 1.745l-3.824 5.089c-2.788 3.72-7.061 5.858-11.719 5.861C197.084 202.313 197.082 202.313 197.078 202.313zM212.334 338.59c-2.588 0-4.814-1.952-5.097-4.584-.457-4.246 1.283-8.345 4.654-10.965 3.371-2.62 7.771-3.296 11.768-1.807l4.438 1.652c.795.294 1.433.005 1.742-.195.308-.197.833-.655.893-1.502l.339-4.721c.308-4.258 2.751-7.979 6.535-9.955 3.786-1.977 8.237-1.855 11.905.323.319.189.655.286.992.286.888 0 1.877-.643 1.964-1.834l.195-2.694c.317-4.265 2.763-7.981 6.546-9.954 3.781-1.972 8.23-1.851 11.9.324.326.193.648.287.986.287.892 0 1.887-.643 1.974-1.833l.195-2.694c.308-4.259 2.748-7.982 6.53-9.96 3.781-1.978 8.232-1.856 11.904.318.324.192.659.289.996.289.888 0 1.878-.643 1.965-1.834.209-2.827 2.673-4.959 5.496-4.743 2.827.208 4.951 2.668 4.744 5.495-.468 6.364-5.828 11.349-12.205 11.349-2.173 0-4.328-.597-6.23-1.724-.82-.486-1.551-.242-1.913-.053-.361.189-.979.648-1.048 1.602l-.195 2.7c-.467 6.37-5.832 11.354-12.213 11.354-2.169 0-4.32-.595-6.223-1.723-.82-.487-1.553-.242-1.916-.053s-.984.649-1.055 1.602l-.194 2.689c-.466 6.37-5.827 11.355-12.204 11.355-2.174 0-4.329-.597-6.231-1.725-.819-.484-1.549-.241-1.912-.051-.362.188-.979.646-1.048 1.591l-.338 4.72c-.279 3.872-2.311 7.297-5.575 9.399-3.268 2.104-7.233 2.535-10.876 1.186l-4.444-1.655c-.887-.329-1.561.04-1.884.291-.323.252-.849.814-.748 1.762.303 2.819-1.736 5.35-4.555 5.653C212.704 338.581 212.518 338.59 212.334 338.59z"/></svg>