<svg xmlns="http://www.w3.org/2000/svg" enable-background="new 0 0 50 50" viewBox="0 0 50 50"><path fill="#F5B948" d="M12.76 40.8636v4.5435c0 .5877.4733 1.061 1.0609 1.061h1.7314c.5877 0 1.0609-.4734 1.0609-1.061v-4.5435H12.76zM18.6559 43.3954v4.5435c0 .5877.4733 1.061 1.0609 1.061h1.7314c.5877 0 1.0609-.4734 1.0609-1.061v-4.5435H18.6559z"/><path fill="#FFCA67" d="M10.7834,20.3578c0,0,0.4553-1.8722,1.0558-3.2881c0.5724-1.3495,0.9414-2.7764,1.0083-4.2407
			l0.8948-7.2964c0.016-0.351,0.2897-0.6357,0.6398-0.6656l1.8894-0.1309c0.3984-0.034,0.7443,0.272,0.7591,0.6716l0.7431,3.1288
			c0.595,0.4099,2.8903-3.0512,1.7583-4.1136l-0.2832-2.9376c-0.0117-0.1214,0.072-0.2314,0.1922-0.2524l1.1294-0.1978
			c0.1147-0.0201,0.2267,0.0474,0.2625,0.1582l1.0904,3.3723l1.2763-0.2701l0.0318-3.0906C23.2459,1.0879,23.3453,1,23.4632,1h1.162
			c0.116,0,0.2144,0.0851,0.2311,0.1999l0.4502,3.0955h1.0805l1.275-2.9913c0.0632-0.1484,0.2542-0.1895,0.3729-0.0803
			l0.9965,0.9168c0.0675,0.0621,0.0924,0.1579,0.0637,0.2449l-0.9674,2.9363c0,0,2.7973,3.0793,3.1214,6.5368l2.5189-0.576
			c0.3222-0.0737,0.652,0.0878,0.7914,0.3875l0.904,1.944c0.1606,0.3454,0.0158,0.7559-0.326,0.9241l-3.8883,1.9124l1.4404,2.3771
			l5.9739-1.6734c0.3351-0.0939,0.6884,0.0725,0.8294,0.3907l0.5039,1.1365c0.1731,0.3904-0.0404,0.8436-0.4517,0.9586
			l-4.3607,1.2199l1.3849,1.1551l4.2619-0.7472c0.3725-0.0653,0.7296,0.1768,0.8068,0.547l0.3086,1.4799
			c0.0857,0.4112-0.2071,0.8049-0.6256,0.841l-14.8754,1.2827l-10.9714-0.9278L10.7834,20.3578z"/><path fill="#ECAB45" d="M31.2491,16.4507l3.8883-1.9124c0.3419-0.1681,0.4867-0.5786,0.326-0.9241l-0.904-1.944
			c-0.1394-0.2997-0.4692-0.4612-0.7914-0.3875l-4.1759,1.0392l-10.5729-2.391l-0.4181,2.8056l6.226,1.8603l1.8772,5.8221
			l3.262-1.0323L31.2491,16.4507z"/><path fill="#D75548" d="M28.7816,17.8002c-0.2733,0.6674-0.3286,1.3874-0.2831,2.0822c0.0391,0.5279,0.1433,1.1265,0.508,2.0585
			c0.1931,0.7039,1.0543,0.9176,1.8138,0.7157c1.9199-0.6041,3.2781-0.087,5.0238,0.8808c0.7496,0.4267,1.4414,0.9691,1.9986,1.6174
			c-0.6594-0.5455-1.3948-0.9644-2.1495-1.3299c-2.3915-1.0903-3.4156-1.0472-4.7648-0.6495
			c-0.4423,0.0817-0.928,0.1282-1.4008-0.0518c-0.4772-0.1718-0.8505-0.5794-0.9709-1.0942l0.0102,0.036
			c-0.2379-0.6996-0.3621-1.4394-0.3592-2.1759C28.2343,19.1577,28.3888,18.4105,28.7816,17.8002z"/><path fill="none" d="M16.9718,35.715c0.1364,0.4417,0.3492,0.8726,0.693,1.1817c0.5182,0.466,1.2494,0.5911,1.9382,0.6969"/><path fill="#F5B948" d="M32.007,11.705l-2.2932,0.5464c-0.2475-2.4567-1.0462-4.1614-2.3586-5.0721
				c-1.7748-1.2283-4.0353-0.6445-4.0586-0.6399l-0.056,0.014c-1.2517,0.2802-2.1998,0.9668-2.9004,2.1017
				c-2.8303,4.5771-0.4997,14.1702-0.4764,14.2683l-2.2652,0.5604c-0.1074-0.4297-2.5875-10.6533,0.7566-16.057
				c1.0275-1.6674,2.494-2.7276,4.3529-3.1479c0.3783-0.0981,3.4001-0.7986,5.9735,0.9808
				C30.5218,6.5301,31.638,8.6972,32.007,11.705z"/><path fill="#F5B948" d="M29.0314 2.1406l-.9965-.9168c-.1187-.1092-.3097-.0681-.3729.0803l-1.275 2.9913 1.7407 1.0264.9674-2.9363C29.1238 2.2985 29.0989 2.2027 29.0314 2.1406zM24.6252 1h-1.162c-.1179 0-.2173.0879-.2318.2048l-.0318 3.0906h2.1069l-.4502-3.0955C24.8396 1.0851 24.7412 1 24.6252 1zM20.5704 1.035l-1.1294.1978c-.1202.0211-.2038.131-.1922.2525l.4089 4.5088 2.2656-1.4285-1.0904-3.3723C20.797 1.0824 20.6851 1.0149 20.5704 1.035z"/><path fill="#E9715F" d="M40.2522,43.708c0,0-3.4,5.9399-12.74,3.34c0,0-6.98-1.4301-12.4-3.6899c-2.48-1.03-4.38-3.08-5.25-5.62
			c-0.02-0.0601-0.05-0.13-0.08-0.23c-0.94-2.8101-1.5-5.74-1.6801-8.7001c-0.02-0.2-0.03-0.37-0.04-0.5
			c-0.11-1.59,0.1-4.2,1.95-7.11c0,0,3.77-5.51,9.22,1.24c0,0,5.69-5.51,10.69-4.52c0,0,6.19-1.36,7.92,7.24
			C37.8423,25.158,44.0923,35.4781,40.2522,43.708z"/><path fill="#D75548" d="M19.228,22.4338c-4.1139,10.7311-5.4551,9.934-2.0717,21.7173c-2.053-3.4634-3.7491-8.9038-2.5622-12.6246
			l-0.0208,0.07C15.1941,29.1666,17.6673,24.7994,19.228,22.4338z"/><path fill="none" d="M36.5627,37.3153c0.0613,0.2508-0.1872,0.4547-0.3346,0.6668c-0.1199,0.1726-0.1801,0.3815-0.3029,0.5521
			c-0.1263,0.1754-0.3146,0.3042-0.416,0.4951c-0.0719,0.1354-0.095,0.2934-0.1733,0.4252
			c-0.1292,0.2176-0.4069,0.3705-0.4031,0.6236"/><path fill="#D75548" d="M39.2473,37.5877c0.1343-1.0394-1.4919-2.3206-2.5797-2.7539c-1.1334-2.5105-0.822-2.9497-0.9793-5.1
			c0.7495,1.0957,1.5002,1.4221,2.1211,1.7027c-0.1088-0.7104-0.9699-1.8845-2.1881-2.303
			c-0.0767-0.5533-0.2088-1.1042-0.4738-1.5905c-0.4989-0.7885-0.5597-1.7022-1.0246-2.5736
			c-0.4584-0.8365-1.0463-1.5596-1.6682-2.2448c2.1926,3.6377,1.2805,3.0233,2.0173,4.7863
			c-0.9154,0.9223-4.2011,2.7486-3.198,4.823c0.2597-2.001,2.5847-2.7273,3.3222-4.5031c0.5691,1.362,0.2538,2.9032,0.4491,4.5079
			c-0.6186,0.3189-1.3415,0.8214-1.5693,1.4752c-0.1089,0.2897-0.5282,0.5904-0.2161,1.5091
			c0.1905-0.305,0.3501-0.5997,0.5215-0.7558c0.5284-0.4542,0.3396-0.4805,0.5814-0.7453c0.2503-0.3716,0.4073-0.3472,0.7598-1.0217
			c0.2856,1.4985,0.9655,2.4207,1.0428,2.9562c0.1173,0.6862-0.1893,2.7527,1.4454,5.3664
			c0.2257,0.3827,0.5129,0.7414,0.5066,1.1918c0.0224,0.4419-0.0751,0.8998-0.1711,1.3514c0.1776-0.426,0.351-0.8646,0.384-1.3499
			c0.0678-0.5066-0.1903-0.9578-0.3773-1.3883c-0.7895-1.5453-1.1753-3.5923-1.036-5.2882
			C37.6064,36.3797,39.2062,37.5398,39.2473,37.5877z"/><path fill="none" d="M20.1992,23.5945c-0.4755,0.3245-2.3319,5.3024-2.4594,5.6975c-1.2947,4.0111-0.4989,9.8192-0.083,10.9952
			c0.3384,0.9569,1.0879,1.7011,1.8142,2.41"/><path fill="#D75548" d="M20.2285 27.0228c1.3608.6773 3.2287 1.2767 4.5988.6049-1.5946-.1754-3.0415-.8353-4.3662-1.1396-.4917-.114-.9469-.294-1.4417-.5018C19.3241 26.4168 19.7458 26.8072 20.2285 27.0228zM21.5842 29.6573c2.7254 2.792 2.103.4541 6.6123 1.0413-.841-.4013-1.7971-.5998-2.7542-.5678-2.2309-.0172-1.2816.9804-3.362-.9787-.9969-.9615-2.0576-.6899-3.4319-2.3043C18.995 27.7106 20.9337 28.9142 21.5842 29.6573zM23.9522 34.8948c-1.2873-.1255-2.5169-.5701-3.4198-1.6041.1864-.0026.3729-.0054.5599-.0192.461-.029 1.0209-.0691 1.4379-.3742-.4983.0175-.9216-.1442-1.4084-.2103-1.2114-.2134-1.7294-.132-2.1103-.1826-.4129.0485-.9031-.3836-1.8919-.7126.3944.5052.9522 1.1652 1.5288 1.3429-.0507.1932-.0219.4218.0209.5991.7968 2.5717 1.3037 2.7109 2.5124 3.4043.5018.2711 1.0695.4791 1.6488.5146-.3913-.253-2.2855-1.7226-2.5252-2.0148-.0369-.0545-1.4902-2.3961-1.5046-2.4603.3035.0676.6126.0783.854.1037.2557.0094.5116.0145.7678.0133 1.2164 3.405 6.1415 2.0519 6.6912 2.2288.3203.0715.6409.3248 1.0141.398-.2994-.2256-.5135-.5046-.8646-.7339C26.7468 34.8761 25.2182 35.0428 23.9522 34.8948zM22.4835 40.2325c-2.1534-.1468-3.8814.4749-4.9696-.3815.8236 1.3259 3.2134.9796 4.9109 1.1286 2.8334.2033 2.2479 1.1984 4.5388 1.8481-.3417-.2697-.7062-.498-1.0013-.7894C25.3629 41.4936 24.8243 40.433 22.4835 40.2325z"/></svg>