<svg xmlns="http://www.w3.org/2000/svg" viewBox="0 0 135.467 135.467"><path style="-inkscape-stroke:none" fill="#b0bec5" d="m 42.748047,27.558594 a 2.1166649,2.1166649 0 0 0 -1.587891,0.314453 2.1166649,2.1166649 0 0 0 -0.58789,2.933594 l 50.800781,76.201169 a 2.1166649,2.1166649 0 0 0 2.933594,0.58594 2.1166649,2.1166649 0 0 0 0.58789,-2.93359 L 44.09375,28.458984 a 2.1166649,2.1166649 0 0 0 -1.345703,-0.90039 z" color="#000"/><path style="-inkscape-stroke:none" fill="#b0bec5" d="m 92.71875,27.558594 a 2.1166649,2.1166649 0 0 0 -1.345703,0.90039 L 40.572266,104.66016 a 2.1166649,2.1166649 0 0 0 0.58789,2.93359 2.1166649,2.1166649 0 0 0 2.933594,-0.58594 L 94.894531,30.806641 a 2.1166649,2.1166649 0 0 0 -0.58789,-2.933594 2.1166649,2.1166649 0 0 0 -1.587891,-0.314453 z" color="#000"/><path fill="#e91e63" d="M 101.59999,67.73333 A 33.866665,33.866665 0 0 1 67.73333,101.59999 33.866665,33.866665 0 0 1 33.866665,67.73333 33.866665,33.866665 0 0 1 67.73333,33.866665 33.866665,33.866665 0 0 1 101.59999,67.73333 Z" paint-order="markers fill stroke"/><path style="-inkscape-stroke:none" fill="#f06292" d="M 59.583984,38.142578 C 46.277026,41.807082 37.041016,53.930111 37.041016,67.732422 a 2.1166649,2.1166649 0 0 0 2.117187,2.117187 2.1166649,2.1166649 0 0 0 2.117188,-2.117187 c 0,-11.917098 7.944189,-22.343831 19.433593,-25.507813 A 2.1166649,2.1166649 0 0 0 62.1875,39.621094 2.1166649,2.1166649 0 0 0 59.583984,38.142578 Z" color="#000" paint-order="markers fill stroke"/><path style="-inkscape-stroke:none" fill="#b0bec5" d="M67.732422 19.050781a2.1166649 2.1166649 0 00-2.115235 2.115235v21.167968a2.1166649 2.1166649 0 002.115235 2.115235 2.1166649 2.1166649 0 002.117187-2.115235V21.166016a2.1166649 2.1166649 0 00-2.117187-2.115235zM26.458984 65.617187a2.1166649 2.1166649 0 00-2.117187 2.115235 2.1166649 2.1166649 0 002.117187 2.117187h15.875a2.1166649 2.1166649 0 002.115235-2.117187 2.1166649 2.1166649 0 00-2.115235-2.115235zM93.132812 65.617187a2.1166649 2.1166649 0 00-2.115234 2.115235 2.1166649 2.1166649 0 002.115234 2.117187h15.874998a2.1166649 2.1166649 0 002.11719-2.117187 2.1166649 2.1166649 0 00-2.11719-2.115235z" color="#000"/><path style="-inkscape-stroke:none" fill="#cfd8dc" d="M 86.783327,67.733322 A 19.049997,19.049994 0 0 1 67.73333,86.783316 19.049997,19.049994 0 0 1 48.683332,67.733322 19.049997,19.049994 0 0 1 67.73333,48.683329 19.049997,19.049994 0 0 1 86.783327,67.733322 Z" color="#000" paint-order="markers fill stroke"/><path style="-inkscape-stroke:none" fill="#ffca28" d="m 67.732422,46.566406 c -11.664942,0 -21.166015,9.501076 -21.166016,21.166016 0,11.664941 9.501074,21.167969 21.166016,21.167969 11.664941,0 21.167969,-9.503029 21.167969,-21.167969 -10e-7,-11.66494 -9.503028,-21.166016 -21.167969,-21.166016 z m 0,4.234375 c 9.377083,0 16.933593,7.55456 16.933594,16.931641 0,9.377081 -7.556511,16.933594 -16.933594,16.933594 -9.377083,0 -16.931641,-7.556513 -16.931641,-16.933594 10e-7,-9.377081 7.554558,-16.931641 16.931641,-16.931641 z" color="#000" paint-order="markers fill stroke"/><path fill="#ffca28" d="m 71.966663,21.166664 a 4.2333331,4.2333331 0 0 1 -4.23333,4.233333 4.2333331,4.2333331 0 0 1 -4.23333,-4.233333 4.2333331,4.2333331 0 0 1 4.23333,-4.233332 4.2333331,4.2333331 0 0 1 4.23333,4.233332 z"/><path fill="#ffe082" d="m 70.908328,22.224998 a 2.1166646,2.1166666 0 0 1 -2.11667,2.116666 2.1166646,2.1166666 0 0 1 -2.11666,-2.116666 2.1166646,2.1166666 0 0 1 2.11666,-2.116667 2.1166646,2.1166666 0 0 1 2.11667,2.116667 z"/><path style="-inkscape-stroke:none" fill="#b0bec5" d="m 67.732422,91.017578 a 2.1166649,2.1166649 0 0 0 -2.115235,2.115234 v 21.167968 a 2.1166649,2.1166649 0 0 0 2.115235,2.11524 2.1166649,2.1166649 0 0 0 2.117187,-2.11524 V 93.132812 a 2.1166649,2.1166649 0 0 0 -2.117187,-2.115234 z" color="#000"/><path fill="#ffca28" d="m 71.966663,114.29999 a 4.2333331,4.2333331 0 0 0 -4.23333,-4.23333 4.2333331,4.2333331 0 0 0 -4.23333,4.23333 4.2333331,4.2333331 0 0 0 4.23333,4.23333 4.2333331,4.2333331 0 0 0 4.23333,-4.23333 z"/><path fill="#ffe082" d="m 70.908328,113.24166 a 2.1166646,2.1166666 0 0 0 -2.11667,-2.11667 2.1166646,2.1166666 0 0 0 -2.11666,2.11667 2.1166646,2.1166666 0 0 0 2.11666,2.11666 2.1166646,2.1166666 0 0 0 2.11667,-2.11666 z"/><path style="-inkscape-stroke:none" fill="#b0bec5" d="m 42.847656,82.613281 a 2.1166649,2.1166649 0 0 0 -1.603515,0.238281 L 20.078125,95.550781 a 2.1166649,2.1166649 0 0 0 -0.726563,2.904297 2.1166649,2.1166649 0 0 0 2.904297,0.726563 L 43.421875,86.482422 a 2.1166649,2.1166649 0 0 0 0.726562,-2.904297 2.1166649,2.1166649 0 0 0 -1.300781,-0.964844 z" color="#000"/><path fill="#ffca28" d="m 25.39999,97.366662 a 4.2333331,4.2333331 0 0 1 -4.23333,4.233328 4.2333331,4.2333331 0 0 1 -4.233331,-4.233328 4.2333331,4.2333331 0 0 1 4.233331,-4.233334 4.2333331,4.2333331 0 0 1 4.23333,4.233334 z"/><path fill="#ffe082" d="m 23.28333,96.308318 a 2.1166646,2.1166666 0 0 1 -2.11667,2.116674 2.1166646,2.1166666 0 0 1 -2.11666,-2.116674 2.1166646,2.1166666 0 0 1 2.11666,-2.11666 2.1166646,2.1166666 0 0 1 2.11667,2.11666 z"/><path style="-inkscape-stroke:none" fill="#b0bec5" d="m 22.255859,36.285156 a 2.1166649,2.1166649 0 0 0 -2.904297,0.726563 2.1166649,2.1166649 0 0 0 0.726563,2.902343 l 21.166016,12.701172 a 2.1166649,2.1166649 0 0 0 2.904296,-0.726562 2.1166649,2.1166649 0 0 0 -0.726562,-2.904297 z" color="#000"/><path fill="#ffca28" d="m 25.399991,38.099994 a 4.2333331,4.2333331 0 0 0 -4.23333,-4.23333 4.2333331,4.2333331 0 0 0 -4.233328,4.23333 4.2333331,4.2333331 0 0 0 4.233328,4.23333 4.2333331,4.2333331 0 0 0 4.23333,-4.23333 z"/><path fill="#ffe082" d="m 23.283331,39.158334 a 2.1166646,2.1166666 0 0 0 -2.11667,-2.11667 2.1166646,2.1166666 0 0 0 -2.11666,2.11667 2.1166646,2.1166666 0 0 0 2.11666,2.11666 2.1166646,2.1166666 0 0 0 2.11667,-2.11666 z"/><path style="-inkscape-stroke:none" fill="#b0bec5" d="m 114.8125,36.046875 a 2.1166649,2.1166649 0 0 0 -1.60156,0.238281 L 92.044922,48.984375 a 2.1166649,2.1166649 0 0 0 -0.726563,2.904297 2.1166649,2.1166649 0 0 0 2.904297,0.726562 L 115.38867,39.914062 a 2.1166649,2.1166649 0 0 0 0.72656,-2.902343 2.1166649,2.1166649 0 0 0 -1.30273,-0.964844 z" color="#000"/><path fill="#ffca28" d="m 110.06668,38.099994 a 4.2333331,4.2333331 0 0 1 4.23333,-4.23333 4.2333331,4.2333331 0 0 1 4.23332,4.23333 4.2333331,4.2333331 0 0 1 -4.23332,4.23333 4.2333331,4.2333331 0 0 1 -4.23333,-4.23333 z"/><path fill="#ffe082" d="m 112.18334,39.158334 a 2.1166646,2.1166666 0 0 1 2.11667,-2.11667 2.1166646,2.1166666 0 0 1 2.11666,2.11667 2.1166646,2.1166666 0 0 1 -2.11666,2.11666 2.1166646,2.1166666 0 0 1 -2.11667,-2.11666 z"/><path style="-inkscape-stroke:none" fill="#b0bec5" d="m 92.619141,82.613281 a 2.1166649,2.1166649 0 0 0 -1.300782,0.964844 2.1166649,2.1166649 0 0 0 0.726563,2.904297 l 21.166018,12.699219 a 2.1166649,2.1166649 0 0 0 2.90429,-0.726563 2.1166649,2.1166649 0 0 0 -0.72656,-2.904297 L 94.222656,82.851562 a 2.1166649,2.1166649 0 0 0 -1.603515,-0.238281 z" color="#000"/><path fill="#ffca28" d="m 110.06666,97.366661 a 4.2333331,4.2333331 0 0 0 4.23333,4.233319 4.2333331,4.2333331 0 0 0 4.23332,-4.233319 4.2333331,4.2333331 0 0 0 -4.23332,-4.233334 4.2333331,4.2333331 0 0 0 -4.23333,4.233334 z"/><path fill="#ffe082" d="m 112.18332,96.308317 a 2.1166646,2.1166666 0 0 0 2.11667,2.116674 2.1166646,2.1166666 0 0 0 2.11666,-2.116674 2.1166646,2.1166666 0 0 0 -2.11666,-2.11666 2.1166646,2.1166666 0 0 0 -2.11667,2.11666 z"/><path style="-inkscape-stroke:none" fill="#00bcd4" d="m 58.208984,57.150391 a 2.1166649,2.1166649 0 0 0 -2.117187,2.117187 2.1166649,2.1166649 0 0 0 2.117187,2.115234 h 16.933594 c 0.609573,0 1.056641,0.449021 1.056641,1.058594 0,0.609573 -0.447068,1.058594 -1.056641,1.058594 H 62.441406 c -2.897432,0 -5.291015,2.393584 -5.291015,5.291016 0,2.897431 2.393584,5.292969 5.291015,5.292968 h 8.466797 a 2.1166649,2.1166649 0 0 0 2.117188,-2.117187 2.1166649,2.1166649 0 0 0 -2.117188,-2.117188 h -8.466797 c -0.609572,0 -1.058593,-0.449021 -1.058594,-1.058593 0,-0.609573 0.449021,-1.058594 1.058594,-1.058594 h 12.701172 c 2.897432,0 5.291016,-2.393584 5.291016,-5.291016 0,-2.897432 -2.393584,-5.291015 -5.291016,-5.291015 z" color="#000"/><path fill="#00bcd4" d="M 70.908333,79.374993 A 2.1166666,2.1166666 0 0 1 68.791666,81.49166 2.1166666,2.1166666 0 0 1 66.675,79.374993 a 2.1166666,2.1166666 0 0 1 2.116666,-2.116666 2.1166666,2.1166666 0 0 1 2.116667,2.116666 z"/><path fill="#f06292" d="M 42.333333,75.14166 A 2.1166666,2.1166666 0 0 1 40.216666,77.258327 2.1166666,2.1166666 0 0 1 38.1,75.14166 a 2.1166666,2.1166666 0 0 1 2.116666,-2.116666 2.1166666,2.1166666 0 0 1 2.116667,2.116666 z"/><path fill="#ffca28" d="m 46.566658,105.83333 a 4.2333331,4.2333331 0 0 1 -4.23333,4.23333 4.2333331,4.2333331 0 0 1 -4.233331,-4.23333 4.2333331,4.2333331 0 0 1 4.233331,-4.23334 4.2333331,4.2333331 0 0 1 4.23333,4.23334 z"/><path fill="#ffe082" d="m 44.449998,104.77498 a 2.1166646,2.1166666 0 0 1 -2.11667,2.11668 2.1166646,2.1166666 0 0 1 -2.11666,-2.11668 2.1166646,2.1166666 0 0 1 2.11666,-2.11666 2.1166646,2.1166666 0 0 1 2.11667,2.11666 z"/><path fill="#ffca28" d="m 46.566664,29.633334 a 4.2333331,4.2333331 0 0 1 -4.23333,4.23333 4.2333331,4.2333331 0 0 1 -4.233331,-4.23333 4.2333331,4.2333331 0 0 1 4.233331,-4.233334 4.2333331,4.2333331 0 0 1 4.23333,4.233334 z"/><path fill="#ffe082" d="m 44.450004,28.57499 a 2.1166646,2.1166666 0 0 1 -2.11667,2.116674 2.1166646,2.1166666 0 0 1 -2.11666,-2.116674 2.1166646,2.1166666 0 0 1 2.11666,-2.11666 2.1166646,2.1166666 0 0 1 2.11667,2.11666 z"/><path fill="#ffca28" d="m 97.366658,29.633335 a 4.2333331,4.2333331 0 0 1 -4.23333,4.23333 4.2333331,4.2333331 0 0 1 -4.23333,-4.23333 4.2333331,4.2333331 0 0 1 4.23333,-4.233334 4.2333331,4.2333331 0 0 1 4.23333,4.233334 z"/><path fill="#ffe082" d="m 95.249998,28.574991 a 2.1166646,2.1166666 0 0 1 -2.11667,2.116674 2.1166646,2.1166666 0 0 1 -2.11666,-2.116674 2.1166646,2.1166666 0 0 1 2.11666,-2.11666 2.1166646,2.1166666 0 0 1 2.11667,2.11666 z"/><path fill="#ffca28" d="M 29.63333,67.733331 A 4.2333331,4.2333331 0 0 1 25.4,71.966661 4.2333331,4.2333331 0 0 1 21.16667,67.733331 4.2333331,4.2333331 0 0 1 25.4,63.499997 a 4.2333331,4.2333331 0 0 1 4.23333,4.233334 z"/><path fill="#ffe082" d="M 27.51667,66.674987 A 2.1166646,2.1166666 0 0 1 25.4,68.791661 2.1166646,2.1166666 0 0 1 23.28334,66.674987 2.1166646,2.1166666 0 0 1 25.4,64.558327 a 2.1166646,2.1166666 0 0 1 2.11667,2.11666 z"/><path fill="#ffca28" d="m 114.3,67.733326 a 4.2333331,4.2333331 0 0 1 -4.23334,4.23333 4.2333331,4.2333331 0 0 1 -4.23333,-4.23333 4.2333331,4.2333331 0 0 1 4.23333,-4.233334 4.2333331,4.2333331 0 0 1 4.23334,4.233334 z"/><path fill="#ffe082" d="m 112.18334,66.674982 a 2.1166646,2.1166666 0 0 1 -2.11668,2.116674 2.1166646,2.1166666 0 0 1 -2.11666,-2.116674 2.1166646,2.1166666 0 0 1 2.11666,-2.11666 2.1166646,2.1166666 0 0 1 2.11668,2.11666 z"/><path fill="#ffca28" d="m 71.966656,99.483327 a 4.2333331,4.2333331 0 0 1 -4.23333,4.233323 4.2333331,4.2333331 0 0 1 -4.23333,-4.233323 4.2333331,4.2333331 0 0 1 4.23333,-4.23333 4.2333331,4.2333331 0 0 1 4.23333,4.23333 z"/><path fill="#ffe082" d="m 69.849996,98.424987 a 2.1166646,2.1166666 0 0 1 -2.11667,2.116663 2.1166646,2.1166666 0 0 1 -2.11666,-2.116663 2.1166646,2.1166666 0 0 1 2.11666,-2.11666 2.1166646,2.1166666 0 0 1 2.11667,2.11666 z"/><path fill="#ffca28" d="m 71.966654,35.983331 a 4.2333331,4.2333331 0 0 1 -4.23333,4.233323 4.2333331,4.2333331 0 0 1 -4.23333,-4.233323 4.2333331,4.2333331 0 0 1 4.23333,-4.23333 4.2333331,4.2333331 0 0 1 4.23333,4.23333 z"/><path fill="#ffe082" d="m 69.849994,34.924991 a 2.1166646,2.1166666 0 0 1 -2.11667,2.116663 2.1166646,2.1166666 0 0 1 -2.11666,-2.116663 2.1166646,2.1166666 0 0 1 2.11666,-2.11666 2.1166646,2.1166666 0 0 1 2.11667,2.11666 z"/><path fill="#ffca28" d="m 88.900003,105.83332 a 4.2333331,4.2333331 0 0 1 4.23333,-4.23333 4.2333331,4.2333331 0 0 1 4.233316,4.23333 4.2333331,4.2333331 0 0 1 -4.233316,4.23333 4.2333331,4.2333331 0 0 1 -4.23333,-4.23333 z"/><path fill="#ffe082" d="m 91.016663,106.89166 a 2.1166646,2.1166666 0 0 1 2.11667,-2.11667 2.1166646,2.1166666 0 0 1 2.116656,2.11667 2.1166646,2.1166666 0 0 1 -2.116656,2.11666 2.1166646,2.1166666 0 0 1 -2.11667,-2.11666 z"/></svg>