<svg width="23" height="22" viewBox="0 0 23 22" fill="none" xmlns="http://www.w3.org/2000/svg">
<path d="M22.2069 20.1667H21.4138V11C21.4138 10.5138 21.2467 10.0475 20.9492 9.70364C20.6517 9.35982 20.2483 9.16667 19.8276 9.16667H14.2759V1.83333C14.2759 1.3471 14.1087 0.880787 13.8113 0.536971C13.5138 0.193154 13.1103 0 12.6897 0H3.17241C2.75173 0 2.34827 0.193154 2.0508 0.536971C1.75332 0.880787 1.58621 1.3471 1.58621 1.83333V20.1667H0.793103C0.582759 20.1667 0.38103 20.2632 0.232295 20.4352C0.0835588 20.6071 0 20.8402 0 21.0833C0 21.3264 0.0835588 21.5596 0.232295 21.7315C0.38103 21.9034 0.582759 22 0.793103 22H22.2069C22.4172 22 22.619 21.9034 22.7677 21.7315C22.9164 21.5596 23 21.3264 23 21.0833C23 20.8402 22.9164 20.6071 22.7677 20.4352C22.619 20.2632 22.4172 20.1667 22.2069 20.1667ZM19.8276 11V20.1667H14.2759V11H19.8276ZM3.17241 1.83333H12.6897V20.1667H11.1034V14.6667C11.1034 14.4236 11.0199 14.1904 10.8712 14.0185C10.7224 13.8466 10.5207 13.75 10.3103 13.75H5.55172C5.34138 13.75 5.13965 13.8466 4.99092 14.0185C4.84218 14.1904 4.75862 14.4236 4.75862 14.6667V20.1667H3.17241V1.83333ZM9.51724 20.1667H6.34483V15.5833H9.51724V20.1667ZM4.75862 7.33333C4.75862 7.09022 4.84218 6.85706 4.99092 6.68515C5.13965 6.51324 5.34138 6.41667 5.55172 6.41667H7.13793V4.58333C7.13793 4.34022 7.22149 4.10706 7.37023 3.93515C7.51896 3.76324 7.72069 3.66667 7.93103 3.66667C8.14138 3.66667 8.34311 3.76324 8.49184 3.93515C8.64058 4.10706 8.72414 4.34022 8.72414 4.58333V6.41667H10.3103C10.5207 6.41667 10.7224 6.51324 10.8712 6.68515C11.0199 6.85706 11.1034 7.09022 11.1034 7.33333C11.1034 7.57645 11.0199 7.80961 10.8712 7.98151C10.7224 8.15342 10.5207 8.25 10.3103 8.25H8.72414V10.0833C8.72414 10.3264 8.64058 10.5596 8.49184 10.7315C8.34311 10.9034 8.14138 11 7.93103 11C7.72069 11 7.51896 10.9034 7.37023 10.7315C7.22149 10.5596 7.13793 10.3264 7.13793 10.0833V8.25H5.55172C5.34138 8.25 5.13965 8.15342 4.99092 7.98151C4.84218 7.80961 4.75862 7.57645 4.75862 7.33333Z" fill="white" fill-opacity="0.66"/>
</svg>
