<svg xmlns="http://www.w3.org/2000/svg" enable-background="new 0 0 470.621 496.004" viewBox="0 0 470.621 496.004"><path fill="#aba49a" d="M245.819,284.529L28.523,165.513c-1.938-1.061-4.369-0.351-5.43,1.586
		c-1.062,1.938-0.352,4.369,1.586,5.43l217.296,119.016c0.61,0.334,1.269,0.493,1.918,0.493c1.414,0,2.785-0.752,3.512-2.079
		C248.466,288.021,247.756,285.59,245.819,284.529z"/><path fill="#bcb9ad" d="M56.681,37.034c-10.08,10.45-24.51,36.78-36.78,67.07c-8.2,20.24-21.66,58-19.71,83.39
		c0.32,4.09,0.94,8.23,1.87,12.42c12.678,2.165,22.816-2.657,30.28-14.9c-0.24-3.03-0.04-7.2,0.71-12.46
		c1.78-12.6,6.73-31.45,16.59-55.95c11.57-28.77,24.22-50.94,30.25-57.2c4.88-5.07,14.89-7.19,24.62-7.8l0.62-32.36
		C89.351,19.924,69.471,23.754,56.681,37.034z"/><path fill="#5d5560" d="M130.901,11.904c-9.98-1.53-19.52,1.5-25.77,7.34c-3.63,3.4-6.16,7.74-7.01,12.69
		c-1.25,7.23,1.32,14.3,6.39,19.67h0.01c1.03,1.09,2.17,2.12,3.4,3.06l41.46-33.05v-0.01
		C144.981,16.674,138.501,13.074,130.901,11.904z"/><path fill="#f48ca7" d="M405.751,71.624c0,0-2.28-33.13-23.53-44.1c-21.24-10.96-44.32-3.88-44.32-3.88
		s-12.99-21.84-40.07-23.54c-27.07-1.69-42.73,17.85-42.73,17.85s-15.67-19.54-42.74-17.85c-27.07,1.7-40.06,23.54-40.06,23.54
		s-10.02-3.07-22.92-2.03c-6.69,0.53-14.16,2.17-21.41,5.91c-10.98,5.67-16.9,17.27-20.05,27.14c-2.95,9.23-3.48,16.96-3.48,16.96
		s-19.81,29.67-7.41,58.36c12.39,28.68,53.93,29.39,53.93,29.39s13.17,28.47,46.47,31.39c33.309,2.91,57.669-20.769,57.67-20.77
		c0,0.001,20.541,19.97,49.69,20.97h0.01l35.11-9.84c13.56-9.28,19.32-21.75,19.32-21.75c0.003,0,41.541-0.711,53.94-29.39
		C425.561,101.294,405.751,71.624,405.751,71.624z"/><path fill="#cdc7b9" d="M421.121,364.894l0,20.01c0,34.46-20.79,59.97-52.97,65c-5.08,0.79-10.76,1.18-17.36,1.18
		c-7.94,0-16.08-0.54-24.7-1.11c-8.92-0.59-18.12-1.2-27.41-1.2c-11.44,0-21.14,0.96-29.67,2.93c-11.52,2.67-23.44,9.29-36.07,16.31
		c-22.44,12.47-50.37,27.99-88.72,27.99c-30.66,0-59.84-7.9-82.17-22.26c-25.63-16.47-39.74-39.82-39.74-65.74
		c0-19.95,8.44-40.93,24.49-60.95c41.767-33.065,57.354-32.874,32.99,18.07c-10.49,11.84-20.64,27.51-20.64,42.88
		c0,12.95,8.1,25.29,22.82,34.75c16.22,10.43,38.91,16.41,62.25,16.41c28.81,0,49.21-11.35,70.82-23.35
		c14.97-8.32,29.1-16.17,45.67-20c11.3-2.62,23.71-3.89,37.93-3.89c10.48,0,45.41,2.32,52.16,2.32c4.67,0,8.49-0.25,11.66-0.74
		c9.95-1.56,21.82-7.78,21.82-28.6l0-20.01C396.561,345.943,408.841,345.944,421.121,364.894z"/><path fill="#655f68" d="M227.061,291.674c21.411,1.321,22.115,12.797,3.74,33.54c-16.83,6.16-37.1,8.27-59.42,6.11
		c-9.27-0.9-18.6-2.52-27.85-4.79l-38.47,37.52c-5.82,5.67-14.66,6.88-21.79,2.98l-3.48-1.91l-32.99-18.07l-0.55-0.3
		c-7.12-3.9-10.86-12-9.22-19.96l10.91-52.62c-6.9-6.57-13.28-13.56-19.04-20.89c-13.84-17.65-22.98-35.87-26.84-53.37
		c8.86-8.9,18.95-13.86,30.28-14.9c2.42,31.43,34.16,70.66,75.47,93.29S199.281,306.554,227.061,291.674z"/><polygon fill="#e15c63" points="470.621 271.134 470.621 322.824 428.541 322.824 428.541 364.894 421.121 364.894 384.281 364.894 376.861 364.894 376.861 322.824 334.781 322.824 334.781 271.134 376.861 271.134 376.861 229.054 428.541 229.054 428.541 271.134"/><path fill="#cdc7b9" d="M327.561,141.074c6.4,11.04,12.52,25.45,12.35,40.05c-0.03,3.46-0.43,6.93-1.25,10.37
		c-3.39,14.11-17.8,40.45-36.72,67.09c-12.65,17.81-37.21,49.49-59.66,61.51c-3.62,1.94-7.45,3.65-11.48,5.12
		c2.74-12.25,1.49-23.43-3.74-33.54c2.68-1.44,6.09-3.85,10.13-7.31c9.66-8.29,22.87-22.61,38.2-44.1
		c14.28-20,24.69-38.34,29.41-49.3c1.24-2.88,2.09-5.24,2.51-7c1.64-6.83-1.96-16.41-6.7-24.95c7.26,1.4,14.6-0.25,20.03-5.19
		C324.361,150.434,326.661,145.964,327.561,141.074z"/><path fill="#bab3a6" d="M46.801,347.054l32.99,18.07c-5.28,5.96-10.48,12.89-14.33,20.27
		c-12.21-6.64-24.11-12.82-32.62-17.17C36.541,361.114,41.211,354.024,46.801,347.054z"/><rect width="36.84" height="18" x="384.281" y="364.894" fill="#bab3a6"/><path fill="#ea728c" d="M190.614 114.344c-3.517 4.841-10.61 8.567-17.471 12.172-4.648 2.441-9.038 4.748-12.498 7.458-3.899 3.051-7.34 8.002-10.224 14.716-.872 2.03.066 4.382 2.096 5.254.515.222 1.051.326 1.577.326 1.551 0 3.026-.907 3.677-2.422 2.315-5.389 5.014-9.391 7.806-11.574 2.891-2.265 6.969-4.407 11.287-6.676 7.674-4.031 15.608-8.199 20.223-14.553 7.424-10.223 3.6-28.756 3.139-30.836-.477-2.156-2.602-3.518-4.771-3.04-2.156.478-3.518 2.613-3.04 4.771C193.45 94.612 195.144 108.106 190.614 114.344zM117.007 74.477c3.451.014 6.363.402 8.424 1.122 3.329 1.165 6.482 3.42 9.821 5.808 4.228 3.024 8.6 6.151 13.876 7.409 1.538.364 3.189.519 4.885.519 8.718 0 18.572-4.083 19.859-4.633 2.031-.868 2.973-3.216 2.106-5.247-.865-2.031-3.214-2.974-5.247-2.111-3.514 1.496-13.91 5.07-19.753 3.689-3.747-.894-7.306-3.438-11.073-6.133-3.649-2.61-7.424-5.31-11.834-6.852-2.93-1.025-6.642-1.554-11.031-1.571-.006 0-.012 0-.017 0-2.202 0-3.991 1.78-4 3.983C113.015 72.671 114.798 74.469 117.007 74.477zM184.424 57.205c.762.676 1.71 1.009 2.655 1.009 1.103 0 2.201-.454 2.992-1.344 1.467-1.652 1.316-4.181-.335-5.647-5.946-5.28-9.866-11.725-11.984-19.701-.567-2.136-2.761-3.404-4.893-2.84-2.136.567-3.406 2.758-2.84 4.893C172.52 42.986 177.365 50.936 184.424 57.205zM104.508 127.697c.788 0 1.585-.232 2.281-.717 7.563-5.263 16.086-7.997 26.057-8.359 2.207-.08 3.932-1.935 3.852-4.143-.079-2.207-1.904-3.914-4.143-3.852-11.391.413-21.597 3.706-30.336 9.787-1.813 1.262-2.26 3.755-.998 5.568C101.998 127.099 103.242 127.697 104.508 127.697zM314.736 85.169c-2.148-.476-4.293.883-4.771 3.04-.028.129-.702 3.199-1.09 7.473-.2 2.2 1.422 4.146 3.622 4.345.123.012.245.017.366.017 2.046 0 3.79-1.562 3.979-3.639.339-3.732.929-6.441.934-6.465C318.253 87.782 316.893 85.646 314.736 85.169zM349.548 133.976c-3.155-2.475-7.181-4.662-11.374-6.87-1.952-1.028-4.374-.279-5.403 1.675-1.029 1.955-.279 4.374 1.675 5.403 3.857 2.031 7.537 4.025 10.171 6.09 2.296 1.796 4.575 4.891 6.592 8.95.698 1.407 2.114 2.222 3.585 2.222.598 0 1.205-.135 1.776-.419 1.979-.982 2.786-3.383 1.803-5.361C355.792 140.469 352.822 136.536 349.548 133.976zM384.762 75.599c2.065-.723 4.992-1.111 8.464-1.123 2.209-.008 3.994-1.805 3.986-4.014-.008-2.205-1.797-3.986-4-3.986-.004 0-.009 0-.014 0-4.414.016-8.142.544-11.08 1.572-4.4 1.541-8.17 4.237-11.814 6.844-3.771 2.698-7.334 5.246-11.087 6.14-5.841 1.38-16.234-2.193-19.745-3.688-2.033-.868-4.382.074-5.25 2.107-.867 2.031.075 4.382 2.107 5.25 1.287.55 11.14 4.632 19.854 4.632 1.694 0 3.347-.154 4.884-.519 5.28-1.258 9.657-4.389 13.891-7.416C378.292 79.014 381.442 76.762 384.762 75.599zM337.338 28.682c-2.135-.567-4.325.702-4.894 2.837-2.123 7.979-6.045 14.424-11.99 19.703-1.651 1.467-1.802 3.995-.335 5.647.791.89 1.889 1.344 2.992 1.344.945 0 1.894-.333 2.655-1.009 7.057-6.268 11.905-14.218 14.408-23.629C340.743 31.441 339.473 29.25 337.338 28.682zM299.616 49.107c-.569-.146-14.059-3.499-25.752-.114-5.697 1.656-10.887 4.864-14.764 7.766V32.548c0-2.209-1.791-4-4-4-2.209 0-4 1.791-4 4v24.215c-3.88-2.903-9.076-6.115-14.777-7.771-11.689-3.382-25.18-.028-25.748.116-2.141.544-3.436 2.721-2.892 4.862.545 2.142 2.718 3.436 4.862 2.892.118-.03 11.926-2.968 21.549-.187 7.563 2.198 14.414 8.08 17.006 10.502v73.565c-2.395 2.224-8.706 7.364-16.241 7.707-9.75.446-16.526-4.107-16.666-4.202-1.805-1.263-4.289-.829-5.56.969-1.275 1.805-.846 4.301.958 5.575.344.243 8.193 5.689 19.913 5.689.563 0 1.137-.013 1.718-.039 6.346-.289 11.856-2.911 15.878-5.562v8.615c0 2.209 1.791 4 4 4 2.209 0 4-1.791 4-4v-8.615c4.021 2.651 9.53 5.273 15.872 5.562.569.025 1.139.038 1.707.038 3.393 0 6.761-.451 10.035-1.347 2.131-.582 3.387-2.782 2.804-4.913-.582-2.131-2.776-3.387-4.913-2.804-3.02.825-6.138 1.177-9.273 1.033-7.531-.343-13.844-5.488-16.231-7.706V67.175c2.592-2.424 9.435-8.303 16.992-10.499 9.568-2.771 21.438.155 21.558.186 2.14.541 4.313-.754 4.857-2.893C303.052 51.828 301.757 49.651 299.616 49.107zM405.698 118.909c-8.203-5.118-17.642-7.904-28.052-8.282-2.198-.098-4.063 1.643-4.143 3.852-.08 2.208 1.645 4.063 3.852 4.143 8.996.327 17.106 2.707 24.108 7.075.658.411 1.391.607 2.113.607 1.335 0 2.64-.668 3.397-1.884C408.145 122.546 407.572 120.078 405.698 118.909z"/><path fill="#655f68" d="M325.671,124.754c2.23,5.39,2.86,11.1,1.89,16.32c-0.9,4.89-3.2,9.36-6.92,12.75
		c-5.43,4.94-12.77,6.59-20.03,5.19c-5.27-1.01-10.51-3.62-14.94-7.74c-0.01,0-0.01,0-0.01,0c-0.83-0.78-1.64-1.6-2.41-2.48
		c-10.53-11.99-10.88-29.18-0.76-38.4c8.23-7.5,20.84-7.41,30.93-0.66v0.01c2.31,1.54,4.49,3.43,6.45,5.67
		C322.391,118.284,324.331,121.464,325.671,124.754z"/></svg>