<svg xmlns="http://www.w3.org/2000/svg" xmlns:xlink="http://www.w3.org/1999/xlink" enable-background="new 0 0 850 850" viewBox="0 0 850 850"><path fill="#f9eeb2" d="M443.86,616.86H173.13c-22.3,0-40.38-18.08-40.38-40.38V241.84c0-22.3,18.08-40.38,40.38-40.38h270.74
				c22.3,0,40.38,18.08,40.38,40.38v334.65C484.25,598.78,466.17,616.86,443.86,616.86z"/><path fill="#fff" d="M194.64,275.06h-33.26c-6.29,0-11.38-5.1-11.38-11.38c0-6.29,5.1-11.38,11.38-11.38h33.26V275.06z"/><path fill="#f7e38d" d="M194.64,252.29h33.26c6.29,0,11.38,5.1,11.38,11.38s-5.1,11.38-11.38,11.38h-33.26V252.29z"/><path fill="#fff" d="M194.58,316.62h-33.26c-6.29,0-11.38-5.1-11.38-11.38c0-6.29,5.1-11.38,11.38-11.38h33.26V316.62z"/><path fill="#f7e38d" d="M194.58,293.85h33.26c6.29,0,11.38,5.1,11.38,11.38c0,6.29-5.1,11.38-11.38,11.38h-33.26V293.85z"/><path fill="#fff" d="M194.52,358.19h-33.26c-6.29,0-11.38-5.1-11.38-11.38c0-6.29,5.1-11.38,11.38-11.38h33.26V358.19z"/><path fill="#f7e38d" d="M194.52,335.42h33.26c6.29,0,11.38,5.1,11.38,11.38s-5.1,11.38-11.38,11.38h-33.26V335.42z"/><path fill="#fff" d="M194.46,399.76h-33.26c-6.29,0-11.38-5.1-11.38-11.38c0-6.29,5.1-11.38,11.38-11.38h33.26V399.76z"/><path fill="#f7e38d" d="M194.46,376.99h33.26c6.29,0,11.38,5.1,11.38,11.38s-5.1,11.38-11.38,11.38h-33.26V376.99z"/><g><path fill="#fff" d="M194.4,441.33h-33.26c-6.29,0-11.38-5.1-11.38-11.38c0-6.29,5.1-11.38,11.38-11.38h33.26V441.33z"/><path fill="#f7e38d" d="M194.4,418.56h33.26c6.29,0,11.38,5.1,11.38,11.38c0,6.29-5.1,11.38-11.38,11.38H194.4V418.56z"/></g><g><path fill="#fff" d="M194.35,482.89h-33.26c-6.29,0-11.38-5.1-11.38-11.38l0,0c0-6.29,5.1-11.38,11.38-11.38h33.26V482.89z"/><path fill="#f7e38d" d="M194.35,460.13h33.26c6.29,0,11.38,5.1,11.38,11.38l0,0c0,6.29-5.1,11.38-11.38,11.38h-33.26V460.13z"/></g><g><path fill="#fff" d="M194.29,524.46h-33.26c-6.29,0-11.38-5.1-11.38-11.38l0,0c0-6.29,5.1-11.38,11.38-11.38h33.26V524.46z"/><path fill="#f7e38d" d="M194.29,501.69h33.26c6.29,0,11.38,5.1,11.38,11.38l0,0c0,6.29-5.1,11.38-11.38,11.38h-33.26V501.69z"/></g><g><path fill="#fff" d="M194.23,566.03h-33.26c-6.29,0-11.38-5.1-11.38-11.38l0,0c0-6.29,5.1-11.38,11.38-11.38h33.26V566.03z"/><path fill="#f7e38d" d="M194.23,543.26h33.26c6.29,0,11.38,5.1,11.38,11.38l0,0c0,6.29-5.1,11.38-11.38,11.38h-33.26V543.26z"/></g><g><path fill="#fff" d="M308.7,275.06h-33.26c-6.29,0-11.38-5.1-11.38-11.38c0-6.29,5.1-11.38,11.38-11.38h33.26V275.06z"/><path fill="#f7e38d" d="M308.7,252.29h33.26c6.29,0,11.38,5.1,11.38,11.38c0,6.29-5.1,11.38-11.38,11.38H308.7V252.29z"/><path fill="#fff" d="M308.64,316.62h-33.26c-6.29,0-11.38-5.1-11.38-11.38c0-6.29,5.1-11.38,11.38-11.38h33.26V316.62z"/><path fill="#f7e38d" d="M308.64,293.85h33.26c6.29,0,11.38,5.1,11.38,11.38c0,6.29-5.1,11.38-11.38,11.38h-33.26V293.85z"/><path fill="#fff" d="M308.58,358.19h-33.26c-6.29,0-11.38-5.1-11.38-11.38c0-6.29,5.1-11.38,11.38-11.38h33.26V358.19z"/><path fill="#f7e38d" d="M308.58,335.42h33.26c6.29,0,11.38,5.1,11.38,11.38c0,6.29-5.1,11.38-11.38,11.38h-33.26V335.42z"/><path fill="#fff" d="M308.53,399.76h-33.26c-6.29,0-11.38-5.1-11.38-11.38c0-6.29,5.1-11.38,11.38-11.38h33.26V399.76z"/><path fill="#f7e38d" d="M308.53,376.99h33.26c6.29,0,11.38,5.1,11.38,11.38c0,6.29-5.1,11.38-11.38,11.38h-33.26V376.99z"/><g><path fill="#fff" d="M308.47,441.33h-33.26c-6.29,0-11.38-5.1-11.38-11.38c0-6.29,5.1-11.38,11.38-11.38h33.26V441.33z"/><path fill="#f7e38d" d="M308.47,418.56h33.26c6.29,0,11.38,5.1,11.38,11.38c0,6.29-5.1,11.38-11.38,11.38h-33.26V418.56z"/></g><g><path fill="#fff" d="M308.41,482.89h-33.26c-6.29,0-11.38-5.1-11.38-11.38l0,0c0-6.29,5.1-11.38,11.38-11.38h33.26V482.89z"/><path fill="#f7e38d" d="M308.41,460.13h33.26c6.29,0,11.38,5.1,11.38,11.38l0,0c0,6.29-5.1,11.38-11.38,11.38h-33.26V460.13z"/></g><g><path fill="#fff" d="M308.35,524.46h-33.26c-6.29,0-11.38-5.1-11.38-11.38l0,0c0-6.29,5.1-11.38,11.38-11.38h33.26V524.46z"/><path fill="#f7e38d" d="M308.35,501.69h33.26c6.29,0,11.38,5.1,11.38,11.38l0,0c0,6.29-5.1,11.38-11.38,11.38h-33.26V501.69z"/></g><g><path fill="#fff" d="M308.29,566.03h-33.26c-6.29,0-11.38-5.1-11.38-11.38l0,0c0-6.29,5.1-11.38,11.38-11.38h33.26V566.03z"/><path fill="#f7e38d" d="M308.29,543.26h33.26c6.29,0,11.38,5.1,11.38,11.38l0,0c0,6.29-5.1,11.38-11.38,11.38h-33.26V543.26z"/></g></g><g><path fill="#fff" d="M422.76,275.06h-33.26c-6.29,0-11.38-5.1-11.38-11.38c0-6.29,5.1-11.38,11.38-11.38h33.26V275.06z"/><path fill="#f7e38d" d="M422.76,252.29h33.26c6.29,0,11.38,5.1,11.38,11.38c0,6.29-5.1,11.38-11.38,11.38h-33.26V252.29z"/><path fill="#fff" d="M422.7,316.62h-33.26c-6.29,0-11.38-5.1-11.38-11.38c0-6.29,5.1-11.38,11.38-11.38h33.26V316.62z"/><path fill="#f7e38d" d="M422.7,293.85h33.26c6.29,0,11.38,5.1,11.38,11.38c0,6.29-5.1,11.38-11.38,11.38H422.7V293.85z"/><path fill="#fff" d="M422.65,358.19h-33.26c-6.29,0-11.38-5.1-11.38-11.38c0-6.29,5.1-11.38,11.38-11.38h33.26V358.19z"/><path fill="#f7e38d" d="M422.65,335.42h33.26c6.29,0,11.38,5.1,11.38,11.38c0,6.29-5.1,11.38-11.38,11.38h-33.26V335.42z"/><path fill="#fff" d="M422.59,399.76h-33.26c-6.29,0-11.38-5.1-11.38-11.38c0-6.29,5.1-11.38,11.38-11.38h33.26V399.76z"/><path fill="#f7e38d" d="M422.59,376.99h33.26c6.29,0,11.38,5.1,11.38,11.38c0,6.29-5.1,11.38-11.38,11.38h-33.26V376.99z"/><g><path fill="#fff" d="M422.53,441.33h-33.26c-6.29,0-11.38-5.1-11.38-11.38c0-6.29,5.1-11.38,11.38-11.38h33.26V441.33z"/><path fill="#f7e38d" d="M422.53,418.56h33.26c6.29,0,11.38,5.1,11.38,11.38c0,6.29-5.1,11.38-11.38,11.38h-33.26V418.56z"/></g><g><path fill="#fff" d="M422.47,482.89h-33.26c-6.29,0-11.38-5.1-11.38-11.38l0,0c0-6.29,5.1-11.38,11.38-11.38h33.26V482.89z"/><path fill="#f7e38d" d="M422.47,460.13h33.26c6.29,0,11.38,5.1,11.38,11.38l0,0c0,6.29-5.1,11.38-11.38,11.38h-33.26V460.13z"/></g><g><path fill="#fff" d="M422.41,524.46h-33.26c-6.29,0-11.38-5.1-11.38-11.38l0,0c0-6.29,5.1-11.38,11.38-11.38h33.26V524.46z"/><path fill="#f7e38d" d="M422.41,501.69h33.26c6.29,0,11.38,5.1,11.38,11.38l0,0c0,6.29-5.1,11.38-11.38,11.38h-33.26V501.69z"/></g><g><path fill="#fff" d="M422.35,566.03h-33.26c-6.29,0-11.38-5.1-11.38-11.38l0,0c0-6.29,5.1-11.38,11.38-11.38h33.26V566.03z"/><path fill="#f7e38d" d="M422.35,543.26h33.26c6.29,0,11.38,5.1,11.38,11.38l0,0c0,6.29-5.1,11.38-11.38,11.38h-33.26V543.26z"/></g></g><g><path fill="#e52560" d="M673.92,399.13l-116.33,35.39c-10.23-53.69-77.23-161.1,6.32-188.11
						C648.28,222.22,652.61,349.08,673.92,399.13z"/><path fill="#fc5484" d="M557.27,438.73h121.6c-5.84,54.35,27,176.6-60.8,178.13C530.31,615.45,563.09,492.82,557.27,438.73z"/><g><path fill="#f9eeb2" d="M693,443.63c-1.41-20.15-29.71-28.05-41.45-11.85c-6.82-14.48-29.84-9.34-29.57,6.94
					c-0.41,12.62,15.42,20.26,25.07,12.39c0.71,3.3,2.11,6.35,4.05,8.97c-13.51,22.64,4.39,53.79,31.03,53.05
					C722.26,513.59,730.84,455.11,693,443.63z"/></g></g><g><defs><path id="a" d="M252.47,411.82h-76.4c-5.39,0-9.76-4.37-9.76-9.76v-15.35c0-5.39,4.37-9.76,9.76-9.76h76.4
				c5.39,0,9.76,4.37,9.76,9.76v15.35C262.23,407.45,257.86,411.82,252.47,411.82z"/></defs><use fill="#e52560" overflow="visible" xlink:href="#a"/></g><g><defs><path id="b" d="M229.13,616.86h-30.46c-15.83,0-28.66-12.83-28.66-28.66V411.82h87.78V588.2
				C257.79,604.03,244.96,616.86,229.13,616.86z"/></defs><use fill="#fc5484" overflow="visible" xlink:href="#b"/><clipPath id="c"><use overflow="visible" xlink:href="#b"/></clipPath><g clip-path="url(#c)"><polygon fill="#e52560" points="159.64 450.15 266.36 440.45 266.36 621.51 162.17 621.51"/></g></g><g><path fill="#fc5484" d="M240.86,563.55h-54.96c-5.19,0-9.4-4.21-9.4-9.4v-77.53c0-5.19,4.21-9.4,9.4-9.4h54.96
			c5.19,0,9.4,4.21,9.4,9.4v77.53C250.26,559.35,246.05,563.55,240.86,563.55z"/></g><g><rect width="58.52" height="9.57" x="184.12" y="480.25" fill="#fff"/><rect width="58.52" height="9.57" x="184.12" y="495.49" fill="#fff"/><rect width="58.52" height="9.57" x="184.12" y="510.74" fill="#fff"/><rect width="58.52" height="9.57" x="184.12" y="525.98" fill="#fff"/><rect width="38.81" height="9.57" x="184.12" y="541.22" fill="#fff"/></g><g><defs><path id="d" d="M484.57,396.1c-15.78-14.35-46.11-26.87-43.35-52.46c-22.51,0-53.47,0-75.97,0
						c2.77,25.57-27.61,38.16-43.35,52.46c-15.69,12.2-24.87,30.96-24.87,50.84v154.5c0,8.52,6.91,15.43,15.43,15.43
						c19.83-0.47,85.89,0.34,104.51,0c0,0,77.06,0,77.06,0c8.52,0,15.43-6.91,15.43-15.43v-154.5
						C509.44,427.06,500.26,408.3,484.57,396.1z"/></defs><use fill="#5cc0cc" overflow="visible" xlink:href="#d"/><rect width="212.41" height="95.24" x="297.02" y="450.15" fill="#fff"/><rect width="156.17" height="12.76" x="328.07" y="467.24" fill="#87ecf4"/><rect width="156.17" height="12.76" x="328.07" y="487.52" fill="#87ecf4"/><rect width="114.58" height="12.76" x="328.07" y="507.8" fill="#87ecf4"/><g><polygon fill="#5cc0cc" points="484.25 507.45 470.18 507.45 470.18 493.39 456.72 493.39 456.72 507.45 442.66 507.45 442.66 520.91 456.72 520.91 456.72 534.98 470.18 534.98 470.18 520.91 484.25 520.91"/></g><g><defs><path id="e" d="M442.59,343.64h-78.81c-5.89,0-10.67-4.78-10.67-10.67v-22.65c0-5.89,4.78-10.67,10.67-10.67h78.81
						c5.89,0,10.67,4.78,10.67,10.67C452,320.21,458.53,343.3,442.59,343.64z"/></defs><use fill="#87ecf4" overflow="visible" xlink:href="#e"/></g></g><g><path fill="#7b88ff" d="M277.39,240.92c7.21,22.19,31.05,34.33,53.24,27.12c22.19-7.21,34.33-31.05,27.12-53.24
					c-7.21-22.19-31.05-34.33-53.24-27.12C282.32,194.89,270.18,218.73,277.39,240.92z M284.15,238.72
					c-6-18.46,4.1-38.28,22.56-44.28c18.46-6,38.28,4.1,44.28,22.56c6,18.46-4.1,38.28-22.56,44.28
					C309.98,267.28,290.15,257.18,284.15,238.72z"/><path fill="#7b88ff" d="M347.19,313.81L347.19,313.81c1.71-0.56,2.65-2.39,2.09-4.1l-14.82-44.59l-6.19,2.01l14.82,44.59
					C343.64,313.43,345.48,314.37,347.19,313.81z"/><path fill="#7b88ff" d="M350.02,322.53L350.02,322.53c2.61-0.85,4.03-3.65,3.19-6.26l-12.03-36.38l-9.44,3.07l12.03,36.38
					C344.62,321.95,347.42,323.37,350.02,322.53z"/><path fill="#ffcdba" d="M506.4,375.35c4.04,16.65-0.55,30.43-1.64,34.43c-1.08,4-17.74,58.01-24.41,62.64l-3.86-15.99
				c0,0,0,0,4.87-21.99c3.71-16.77,7.39-36.81,7.39-36.81s-4.43-27.19-6.14-30.87C480.9,363.08,506.4,375.35,506.4,375.35z"/><path fill="#9dbcff" d="M495.82,333.32c4.1,2.88,15.43,50.47,15.43,50.47s-2.81,5.58-15.44,5.81c-14.94,0.28-14.38-6.52-14.38-6.52
				s-12.39-33.9-9.83-42.66C474.17,331.66,495.82,333.32,495.82,333.32z"/><path fill="#ffcdba" d="M451.2,334.03c0.97-3.97-1.76-14.84-2.22-25.53l23.64,4.36c0,0,6.84,19.89,7.62,21.18
				C472.76,337.71,453.56,334.01,451.2,334.03z"/><path fill="#ffcdba" d="M446.86,271.25c-7.45,3.15-11.91,18.95-11.75,20.53c0.15,1.58,0.74,2.23-0.25,4.06
				c-0.99,1.84-1.56,3.18-1.86,4.17c-0.3,0.99,3.08,3.09,2.45,4.37s1.42,2.07,1.31,3.42c-0.1,1.35,1.1,9.06,3.57,10.56
				c2.47,1.51,10.53,0.74,15.77-1.68c5.23-2.42,4.88-11.46,4.88-11.46s32.94-23.5,0.89-32.22
				C458.1,271.99,450.08,269.89,446.86,271.25z"/><path fill="#1b3b7f" d="M438.99,277.29c2.77,4.84,7.37,3.73,9.54,8.02c1.62,3.22,0.56,9.93,0.56,9.93s1.59,2.69,2.04,0.57
				c0.9-4.24,2.56-6.8,4.94-6.06c4.76,1.47,3.38,7.92-0.68,10.79c-3.48,2.46-0.51,4.58,4.24,11.97c2.02,3.14,13.11,2.6,13.11,2.6
				s0.44-4.13,5.28-12.92c5.29-9.6,9.13-12.35,7.18-17.95c-3.36-9.65-7.88-7.01-10.32-10.09c0,0-2.62-12.34-13.24-12.34
				c-9.42,0-8.44-0.15-12.11-1.12c-4.36-1.16-7.68-1.61-9.65,0.9C437.5,264.62,436.22,272.44,438.99,277.29z"/><path fill="#3b618d" d="M443.51,648.95c0,0-4.9-2.34-9.65-2.34s-8.05,1.63-10.28,2.34c-2.23,0.71-24.77,9.62-25.05,12.1
				c-0.28,2.48,4.47,3.19,12.84,3.19c8.37,0,18.7,0.35,24.01,0c5.3-0.35,7.93-1.42,7.93-1.42S447.17,659.23,443.51,648.95z"/><path fill="#3b618d" d="M511.91,648.95c0,0-4.9-2.34-9.65-2.34c-4.75,0-8.05,1.63-10.28,2.34c-2.23,0.71-18.04,9.62-18.32,12.1
				c-0.28,2.48,4.47,3.19,12.84,3.19c8.37,0,11.97,0.35,17.28,0c5.3-0.35,7.93-1.42,7.93-1.42S515.57,659.23,511.91,648.95z"/><path fill="#1b3b7f" d="M493.02,438.74c0.28,15.14,3.16,47.66,2.84,72.89c-0.32,25.23,0.42,48.22,0.42,48.22
				c6.25,38.97,17.21,90.77,17.21,90.77s-14.58,4.84-22.71,0c0,0-12.06-44.98-20.47-69.28c-8.41-24.29-11.66-38.49-14.83-70.45
				c-3.18-31.96-8.3-68.23-8.3-68.23L493.02,438.74z"/><path fill="#1b3b7f" d="M478.91,437.8c-0.75,9.35-14.58,70.28-18.32,82.24c-3.74,11.96-8.45,37.82-7.7,39.73
				c0.75,1.91-4.18,49.76-5.71,68.82c-1.53,19.06-3.66,20.36-3.66,20.36s-10.21,3.74-19.93,0c0,0-2.02-75.09-2.32-99.38
				c-0.3-24.3,4.19-75.55,5.31-92.33c1.43-21.4,1.4-36.63,1.4-36.63L478.91,437.8z"/><path fill="#9dbcff" d="M477.88,323.51c0,0-3.64,4.17-13.46,4.17c-5.89,0-13.74-4.33-13.74-4.33l-20.38,5.38
				c0,0-2.61,25.33-3.45,48.04c-0.84,22.71,0.25,82.19,0.25,82.19s6.75-0.94,26.66,4.91c25.14,7.38,32.52-1.87,41.49-7.19
				c0,0-1.12-37.85,0-50.18c1.12-12.34,2.52-34.76,2.8-45.42c0.28-10.65-1.12-24.11-2.24-27.76
				C495.82,333.32,486.01,326.03,477.88,323.51z"/><g><path fill="#ffcdba" d="M337.77,291.29c2.43,0.89,4.06,1.28,4.06,1.28c0.78-2.5,4.25-0.86,5.5,0.3c1.25,1.16,2.57,3.32,5.46,8.11
				c2.89,4.79,11.32,14.3,18.61,17.65c7.29,3.36,16.51,9.87,16.51,9.87s12.97,1.58,20.29,2.68l-1.63,19.3c0,0-25.61-1.66-28.79-5.21
				c-3.18-3.55-16.9-16-25.48-26.54c-1.87-2.3-4.08-6.44-6.74-7.53c-7.28-2.98-8.66-5.06-10.44-6.01c-2.66-1.42-0.31-2.22-2.33-3.22
				c-2.03-1,0.57-2.02-0.45-4.48c-0.7-1.69,1.75-3.1,0.5-4.26C333.61,289.98,337.67,291.24,337.77,291.29z"/></g><g><path fill="#9dbcff" d="M395.1,328.16c-1.1,1.39-5.32,5.74-5.47,14.22c-0.15,8.47,1.37,12.82,1.37,12.82s30.14,5.84,38.86,4.83
				c8.72-1.01,7.51-8.46,12.21-15.34c9.16-13.41-11.76-15.95-11.76-15.95C408.19,331.18,395.1,328.16,395.1,328.16z"/></g></g></svg>