<svg xmlns="http://www.w3.org/2000/svg" enable-background="new 0 0 256 256" viewBox="0 0 256 256"><path fill="#f9cfcf" d="M75.951,106V67.188C75.951,56.591,67.36,48,56.763,48h-5.703c-3.287,0-5.951,2.664-5.951,5.951v57.451
				c0,11.037,1.115,22.047,3.327,32.86l7.13,34.847c0.117,0.719,0.263,1.428,0.435,2.126l0.003,0.014h0
				C58.951,193.165,69.709,202,82.534,202h57.333c15.096,0,27.333-12.238,27.333-27.333V106H75.951z"/><path fill="#3762cc" d="M139.868,204H82.534c-13.521,0-25.229-9.158-28.471-22.271c-0.188-0.761-0.345-1.528-0.471-2.297
				l-7.116-34.77c-2.234-10.923-3.368-22.113-3.368-33.262v-57.45c0-4.385,3.567-7.951,7.951-7.951h5.704
				c11.684,0,21.188,9.505,21.188,21.188V104h89.25c1.104,0,2,0.896,2,2v68.666C169.201,190.841,156.042,204,139.868,204z
				 M51.059,50c-2.178,0-3.951,1.772-3.951,3.951v57.45c0,10.88,1.106,21.801,3.287,32.459l7.13,34.848
				c0.123,0.742,0.259,1.405,0.417,2.048C60.746,192.092,70.857,200,82.534,200h57.333c13.969,0,25.333-11.365,25.333-25.334V108
				h-89.25c-1.104,0-2-0.896-2-2V67.188C73.951,57.711,66.24,50,56.763,50H51.059z"/><path fill="#f9cfcf" d="M108.43,101.414h70.771v-0.664l-27.762-10.485l0.529-0.52l26.13-14.245l24.917-11.263
				c6.667-3.014,9.682-10.754,6.763-17.361h0c-2.591-5.864-9.009-8.889-15.14-7.479l0.001-0.011l-0.07,0.028
				c-0.689,0.162-1.376,0.365-2.052,0.643L145.736,59.25l-0.001,0L75.951,87.883l0.728,2.287h-0.728L108.43,101.414z"/><path fill="#3762cc" d="M179.201,103.414h-70.771c-0.223,0-0.444-0.037-0.654-0.11L75.297,92.06
				c-0.923-0.319-1.48-1.259-1.318-2.222c0.043-0.26,0.137-0.501,0.268-0.715l-0.202-0.634c-0.316-0.992,0.183-2.062,1.146-2.457
				l116.566-47.826c0.703-0.288,1.461-0.527,2.315-0.729c0.039-0.011,0.078-0.02,0.117-0.027l0-0.002
				c7.159-1.641,14.483,1.98,17.417,8.62c3.347,7.574-0.138,16.542-7.769,19.991l-24.85,11.233l-23.017,12.547l23.936,9.04
				c0.778,0.294,1.293,1.039,1.293,1.871v0.664C181.201,102.519,180.306,103.414,179.201,103.414z M108.767,99.414h61.236
				l-19.271-7.278c-0.638-0.241-1.109-0.79-1.25-1.458c-0.141-0.667,0.068-1.36,0.554-1.839l0.529-0.521
				c0.132-0.13,0.282-0.241,0.446-0.33l26.13-14.244c0.043-0.024,0.088-0.046,0.133-0.066l24.917-11.264
				c5.637-2.549,8.22-9.156,5.757-14.729c-2.16-4.889-7.567-7.556-12.863-6.339c-0.002,0-0.003,0.001-0.005,0.001
				c-0.019,0.006-0.037,0.011-0.053,0.015c-0.662,0.155-1.234,0.334-1.75,0.546L78.583,88.965L108.767,99.414z"/><path fill="#4671c6" d="M134.451,60h-46.5c-6.627,0-12,5.373-12,12v53.75c0,1.26,0.069,2.503,0.198,3.729
				c0.37,1.854,1.439,5.119,4.532,7.827l10.157,8.891c4.406,3.857,8.018,8.433,10.752,13.466c3.057,0.865,6.278,1.337,9.611,1.337h0
				c19.468,0,35.25-15.782,35.25-35.25V72C146.451,65.373,141.078,60,134.451,60z"/><path fill="#f9cfcf" d="M139.868,202H82.534c-3.278,0-6.421-0.579-9.333-1.637V248h76v-47.643
					C146.288,201.416,143.147,202,139.868,202z"/><path fill="#3762cc" d="M149.201,250h-76c-1.104,0-2-0.896-2-2v-47.637c0-0.652,0.318-1.264,0.853-1.638
					c0.534-0.374,1.218-0.464,1.831-0.242c2.769,1.007,5.679,1.517,8.65,1.517h57.333c2.96,0,5.871-0.512,8.65-1.522
					c0.614-0.221,1.296-0.133,1.831,0.242c0.534,0.374,0.853,0.985,0.853,1.638V248C151.201,249.104,150.306,250,149.201,250z
					 M75.201,246h72v-42.931c-2.39,0.618-4.847,0.931-7.333,0.931H82.534c-2.492,0-4.948-0.311-7.333-0.926V246z"/><path fill="#e0ebfc" d="M133.451,69h-44.5c-2.209,0-4,1.791-4,4v29.333c0,2.209,1.791,4,4,4h44.5c2.209,0,4-1.791,4-4V73
				C137.451,70.791,135.66,69,133.451,69z"/><path fill="#f9a7a7" d="M107.534 149.32V117c0-1.105-.895-2-2-2H86.951c-1.105 0-2 .895-2 2v8.75c0 12.374 8.608 22.77 20.148 25.528C106.344 151.575 107.534 150.599 107.534 149.32zM114.868 149.32V117c0-1.105.895-2 2-2h18.583c1.105 0 2 .895 2 2v8.75c0 12.374-8.608 22.77-20.148 25.528C116.059 151.575 114.868 150.599 114.868 149.32z"/><path fill="#e0ebfc" d="M118.701,48V10c0-1.104-0.895-2-2-2h-10.667c-1.105,0-2,0.896-2,2v38H118.701z"/><rect width="14.667" height="8" x="104.034" y="16.333" fill="#f9a7a7"/><path fill="#a4c9ff" d="M124.118,60H98.284v-8c0-2.209,1.791-4,4-4h17.833c2.209,0,4,1.791,4,4V60z"/><path fill="#3762cc" d="M118.701,50h-14.667c-1.104,0-2-0.896-2-2V10c0-2.206,1.794-4,4-4h10.667c2.206,0,4,1.794,4,4v38
					C120.701,49.104,119.806,50,118.701,50z M106.034,46h10.667V10h-10.667V46z"/><path fill="#3762cc" d="M124.118,62H98.284c-1.104,0-2-0.896-2-2v-8c0-3.309,2.691-6,6-6h17.833c3.309,0,6,2.691,6,6v8
				C126.118,61.104,125.222,62,124.118,62z M100.284,58h21.833v-6c0-1.103-0.897-2-2-2h-17.833c-1.103,0-2,0.897-2,2V58z"/><circle cx="200.361" cy="49.998" r="4.002" fill="#f9a7a7"/><path fill="#f9a7a7" d="M192.988,82.922L192.988,82.922c-0.935,1.428-1.49,3.143-1.515,4.989c-0.066,4.868,3.695,9.03,8.41,9.284
				c5.126,0.277,9.367-3.927,9.367-9.153c0-1.897-0.559-3.659-1.516-5.121h0l-0.002-0.004c0,0,0,0,0,0l-6.63-10.3
				c-0.352-0.546-1.13-0.546-1.481,0l-6.63,10.299c0,0.001-0.001,0.001-0.001,0.002L192.988,82.922z"/><path fill="#3762cc" d="M107.534,185c-1.104,0-2-0.896-2-2c0-13.524-5.837-26.391-16.014-35.299l-10.157-8.891
				c-5.204-4.555-5.405-10.511-5.412-10.763c-0.026-1.104,0.847-2.021,1.951-2.047C75.919,126,75.936,126,75.952,126
				c1.082,0,1.972,0.864,1.999,1.952c0.006,0.17,0.206,4.486,4.047,7.849l10.157,8.891c11.044,9.668,17.379,23.631,17.379,38.309
				C109.534,184.104,108.639,185,107.534,185z"/><path fill="#3762cc" d="M111.201,163c-3.426,0-6.843-0.476-10.156-1.413c-0.518-0.147-0.956-0.497-1.212-0.971
				c-2.672-4.92-6.142-9.265-10.312-12.915l-10.157-8.891c-3.574-3.129-4.777-6.944-5.176-8.94
				c-0.012-0.061-0.021-0.121-0.027-0.183c-0.139-1.315-0.209-2.641-0.209-3.938V72c0-7.72,6.28-14,14-14h46.5c7.72,0,14,6.28,14,14
				v53.75C148.451,146.29,131.741,163,111.201,163z M102.929,157.952c2.709,0.695,5.488,1.048,8.272,1.048
				c18.334,0,33.25-14.916,33.25-33.25V72c0-5.514-4.486-10-10-10h-46.5c-5.514,0-10,4.486-10,10v53.75
				c0,1.127,0.06,2.278,0.177,3.425c0.317,1.521,1.237,4.32,3.87,6.626l10.157,8.891C96.468,148.467,100.09,152.924,102.929,157.952
				z"/><path fill="#f9cfcf" d="M173.201 124h-49.5c-7.18 0-13-5.82-13-13v0c0-7.18 5.82-13 13-13h49.5c4.971 0 9 4.029 9 9v8C182.201 119.971 178.172 124 173.201 124zM173.201 150h-49.5c-7.18 0-13-5.82-13-13v0c0-7.18 5.82-13 13-13h49.5c4.971 0 9 4.029 9 9v8C182.201 145.971 178.172 150 173.201 150zM173.201 176h-36.083c-7.18 0-13-5.82-13-13v0c0-7.18 5.82-13 13-13h36.083c4.971 0 9 4.029 9 9v8C182.201 171.971 178.172 176 173.201 176z"/><path fill="#3762cc" d="M173.201,126h-49.5c-8.271,0-15-6.729-15-15s6.729-15,15-15h49.5c6.065,0,11,4.935,11,11v8
				C184.201,121.065,179.267,126,173.201,126z M123.701,100c-6.065,0-11,4.935-11,11s4.935,11,11,11h49.5c3.86,0,7-3.141,7-7v-8
				c0-3.859-3.14-7-7-7H123.701z"/><path fill="#3762cc" d="M173.201,152h-49.5c-8.271,0-15-6.729-15-15s6.729-15,15-15h49.5c6.065,0,11,4.935,11,11v8
				C184.201,147.065,179.267,152,173.201,152z M123.701,126c-6.065,0-11,4.935-11,11s4.935,11,11,11h49.5c3.86,0,7-3.141,7-7v-8
				c0-3.859-3.14-7-7-7H123.701z"/><path fill="#3762cc" d="M173.201,178h-36.083c-8.271,0-15-6.729-15-15s6.729-15,15-15h36.083c6.065,0,11,4.935,11,11v8
				C184.201,173.065,179.267,178,173.201,178z M137.118,152c-6.065,0-11,4.935-11,11s4.935,11,11,11h36.083c3.86,0,7-3.141,7-7v-8
				c0-3.859-3.14-7-7-7H137.118z"/></svg>