<svg width="19" height="20" viewBox="0 0 19 20" fill="none" xmlns="http://www.w3.org/2000/svg">
<g clip-path="url(#clip0_69_164)">
<path d="M12.6665 17.5V15.8333C12.6665 14.9493 12.3329 14.1014 11.739 13.4763C11.1451 12.8512 10.3397 12.5 9.49984 12.5H3.95817C3.11832 12.5 2.31286 12.8512 1.719 13.4763C1.12513 14.1014 0.791504 14.9493 0.791504 15.8333V17.5M15.8332 6.66667V11.6667M18.2082 9.16667H13.4582M9.89567 5.83333C9.89567 7.67428 8.47791 9.16667 6.729 9.16667C4.9801 9.16667 3.56234 7.67428 3.56234 5.83333C3.56234 3.99238 4.9801 2.5 6.729 2.5C8.47791 2.5 9.89567 3.99238 9.89567 5.83333Z" stroke="#1E1E1E" stroke-width="1.6" stroke-linecap="round" stroke-linejoin="round"/>
</g>
<defs>
<clipPath id="clip0_69_164">
<rect width="19" height="20" fill="white"/>
</clipPath>
</defs>
</svg>
